<svg id="Paypal" xmlns="http://www.w3.org/2000/svg" width="114.286" height="50" viewBox="0 0 114.286 50">
  <path id="Rectangle-1" d="M106.714,0h-100C3.857,0,1,1.321,1,2.642V29.067q0,3.964,8.571,3.964h97.143q8.571,0,8.571-3.964V3.964Q115.286,0,106.714,0Zm0,0" transform="translate(-1 8.484)" fill="#f6f6f6" fill-rule="evenodd"/>
  <path id="pal" d="M134.255,33.457h-3.006c-.687,0-1.384.947-1.579,2.153-.008.049-.021.1-.028.146,0,0-.071.588-.2,1.6L125.326,71c-.1.761-.159,1.256-.179,1.385l.008.018c-.142,1.176.25,2.149.894,2.257l.009.022h3.114c.682,0,1.375-.938,1.576-2.128.009-.058.024-.112.032-.17l4.495-36.635-.006,0C135.422,34.5,134.973,33.457,134.255,33.457ZM118.866,66.522a8.689,8.689,0,0,1-1.316,1.221,3.058,3.058,0,0,1-1.749.685,2.516,2.516,0,0,1-1.907-.666,3.084,3.084,0,0,1-.654-2.25,7.4,7.4,0,0,1,.486-2.949,4.324,4.324,0,0,1,1.431-1.742,8.069,8.069,0,0,1,2.211-.893c.764-.174,2.276-.487,2.469-.489s.322-.2.236.733c-.039.4-.475,3.63-.675,5.1a3.268,3.268,0,0,1-.531,1.252ZM124.8,43.84c-1.274-1.279-3.265-1.926-5.99-1.926a15.04,15.04,0,0,0-4.061.575,12.306,12.306,0,0,0-1.72.564c-1.275.5-1.471,2.8-1.471,2.8l-.409,3.032c-.232,1.94.381,1.859.654,1.709a12.494,12.494,0,0,1,1.994-1.066,8.691,8.691,0,0,1,3.147-.763,5.039,5.039,0,0,1,3.041.775A3.277,3.277,0,0,1,121,52.278a3.625,3.625,0,0,1-.055.855.638.638,0,0,1-.484.545,30.808,30.808,0,0,0-4.945.955,10.81,10.81,0,0,0-4.258,2.107,9.365,9.365,0,0,0-2.884,4.1,18.328,18.328,0,0,0-.963,6.305,10.853,10.853,0,0,0,1.369,5.722,4.068,4.068,0,0,0,3.537,2.183,5.428,5.428,0,0,0,2.1-.354,8.07,8.07,0,0,0,1.616-1,8.731,8.731,0,0,0,1.381-1.376c.489-.588.829-1.005,1.263-1.518l.016.049-.122.972c0,.009-.008.014-.008.023l0,.018c-.14,1.171.251,2.145.894,2.259l.008.02h.057l0,.005c.428,0,1.895,0,2.581-.005h.479c.031,0,.035-.017.047-.03.658-.145,1.288-1.11,1.436-2.268l2.449-19.035c.056-.448.1-.965.127-1.56s.067-1.1.056-1.453c0-2.694-.637-4.685-1.907-5.966ZM110.052,39.5a9.19,9.19,0,0,0-1.846-3.561,6.654,6.654,0,0,0-2.916-1.927,13.337,13.337,0,0,0-3.944-.558l-7.015.006c-.722.022-1.431,1.044-1.6,2.3L88.016,72.731c-.172,1.256.3,2.3,1.006,2.3l3.366-.011c.714.011,1.441-1.029,1.61-2.285l1.138-8.971c.16-1.257.885-2.31,1.611-2.292H97.7a11.293,11.293,0,0,0,9.569-4.543q3.411-4.559,3.419-11.985A19.86,19.86,0,0,0,110.052,39.5Zm-7.237,12.09a5.017,5.017,0,0,1-4.23,1.976h-.834c-.721.015-1.188-1.036-1.016-2.3l1.006-7.846c.15-1.241.883-2.3,1.594-2.287l1.1-.01a3.666,3.666,0,0,1,2.914,1.169,5.575,5.575,0,0,1,.975,3.6,9.3,9.3,0,0,1-1.511,5.693" transform="translate(-25.852 -29.256)" fill="#306fc5" fill-rule="evenodd"/>
  <path id="pay" d="M64.332,41.914c-.639,0-1.477.937-1.873,2.069,0,0-4.273,13.273-4.693,14.6-.228.713-.459.26-.5-.006-.031-.323-1.324-14.507-1.324-14.507-.145-1.142-.8-2.122-1.627-2.118l-2.665.007c-.642,0-1.043.932-.9,2.059,0,0,2.037,20.917,2.434,25.836.2,2.721-.021,3.2-.021,3.2L50.526,81.4c-.387,1.131-.175,2.058.464,2.058l3.088,0c.639,0,1.486-.922,1.867-2.055L67.823,45s1.136-3.11.088-3.083C67.2,41.932,64.332,41.914,64.332,41.914Zm-22.3,24.608a8.716,8.716,0,0,1-1.316,1.22,3.078,3.078,0,0,1-1.75.685,2.527,2.527,0,0,1-1.907-.665,3.091,3.091,0,0,1-.654-2.252,7.4,7.4,0,0,1,.488-2.948,4.308,4.308,0,0,1,1.429-1.743,8.066,8.066,0,0,1,2.212-.891c.765-.174,2.278-.486,2.471-.492s.321-.195.235.733c-.037.4-.474,3.632-.674,5.1a3.322,3.322,0,0,1-.532,1.253Zm5.933-22.683c-1.273-1.279-3.264-1.925-5.989-1.925a15.005,15.005,0,0,0-4.061.574,12,12,0,0,0-1.72.563c-1.275.5-1.472,2.8-1.472,2.8l-.409,3.034c-.232,1.939.382,1.858.655,1.708a12.6,12.6,0,0,1,1.994-1.067,8.768,8.768,0,0,1,3.146-.762,5.038,5.038,0,0,1,3.041.774,3.28,3.28,0,0,1,1.014,2.741,3.59,3.59,0,0,1-.052.854.639.639,0,0,1-.486.545,31.246,31.246,0,0,0-4.946.957,10.825,10.825,0,0,0-4.258,2.106,9.357,9.357,0,0,0-2.881,4.106,18.239,18.239,0,0,0-.964,6.305,10.86,10.86,0,0,0,1.368,5.721,4.069,4.069,0,0,0,3.536,2.184,5.486,5.486,0,0,0,2.105-.354,8.1,8.1,0,0,0,1.614-1,8.758,8.758,0,0,0,1.382-1.377c.488-.587.829-1,1.265-1.517l.014.048-.122.971c0,.009-.008.015-.008.026l.005.015c-.14,1.174.25,2.147.894,2.259l.008.022h.056l0,.007c.429,0,1.9,0,2.58-.007h.479c.032,0,.037-.019.047-.031.659-.149,1.287-1.112,1.437-2.266l2.449-19.037c.055-.447.1-.964.125-1.558s.068-1.1.059-1.453C49.877,47.111,49.233,45.12,47.964,43.839ZM32.647,39.5A9.189,9.189,0,0,0,30.8,35.943a6.657,6.657,0,0,0-2.916-1.927,13.337,13.337,0,0,0-3.944-.558l-7.015.006c-.722.022-1.431,1.044-1.6,2.3L10.61,72.731c-.172,1.256.3,2.3,1.007,2.3l3.366-.011c.714.011,1.441-1.029,1.61-2.285L17.73,63.76c.16-1.257.885-2.31,1.611-2.292H20.3a11.294,11.294,0,0,0,9.569-4.543q3.411-4.559,3.419-11.985A19.857,19.857,0,0,0,32.647,39.5Zm-7.238,12.09a5.017,5.017,0,0,1-4.23,1.976h-.835c-.722.015-1.188-1.036-1.017-2.3l1.006-7.846c.15-1.241.882-2.3,1.594-2.287l1.1-.01A3.665,3.665,0,0,1,25.945,42.3a5.575,5.575,0,0,1,.975,3.6,9.3,9.3,0,0,1-1.511,5.693" transform="translate(-3.736 -33.457)" fill="#265697" fill-rule="evenodd"/>
</svg>
