<svg xmlns="http://www.w3.org/2000/svg" width="154.432" height="50" viewBox="0 0 154.432 50">
  <g id="VISA" transform="translate(-25.009 -181.864)">
    <g id="形状_1_3_" transform="translate(38.506 181.864)">
      <g id="形状_1">
        <g id="Group_127" data-name="Group 127">
          <path id="Path_84" data-name="Path 84" d="M114.216,182.729l-7.86,48.3h12.575l7.861-48.3H114.216Zm-18.44,0-11.99,33.223L82.368,208.8v0l-.313-1.6A40.057,40.057,0,0,0,70.9,193.053a50.31,50.31,0,0,0-5.6-3.872l10.9,41.851H89.3l20.008-48.3H95.775Zm49.079,13.41c0-5.461,12.247-4.759,17.629-1.794l1.794-10.374a36.3,36.3,0,0,0-11.311-2.106c-6.241,0-21.061,2.729-21.061,15.991,0,12.481,17.394,12.636,17.394,19.188s-15.6,5.381-20.749,1.248l-1.871,10.844a35.225,35.225,0,0,0,14.2,2.729c8.58,0,21.529-4.445,21.529-16.537C162.4,202.768,144.854,201.6,144.854,196.139Zm51.316-13.41H186.06c-4.669,0-5.806,3.6-5.806,3.6l-18.754,44.7h13.107l2.622-7.175h15.987l1.475,7.175h11.547Zm-15.317,31.217,6.608-18.077,3.717,18.077Z" transform="translate(-65.303 -181.864)" fill="#005bac" fill-rule="evenodd"/>
        </g>
      </g>
    </g>
    <g id="形状_1_2_" transform="translate(25.009 182.917)">
      <g id="形状_1_1_" transform="translate(0 0)">
        <g id="Group_128" data-name="Group 128">
          <path id="Path_85" data-name="Path 85" d="M51.512,189.367s-.521-4.36-6.078-4.36H25.245l-.236.819a50.027,50.027,0,0,1,19.015,9.39,37.725,37.725,0,0,1,11.8,15.914Z" transform="translate(-25.009 -185.007)" fill="#f6ac1d" fill-rule="evenodd"/>
        </g>
      </g>
    </g>
  </g>
</svg>
