<svg id="american-express" xmlns="http://www.w3.org/2000/svg" width="80.52" height="50" viewBox="0 0 80.52 50">
  <path id="Rectangle-1" d="M75,0H5A4.3,4.3,0,0,0,1,4V44q0,6,6,6H75q6,0,6-6V6Q81,0,75,0Zm0,0" transform="translate(-0.5 0)" fill="#306fc5" fill-rule="evenodd"/>
  <path id="Shape" d="M7.26,29.363,5.71,25.588,4.17,29.363Zm34.133-1.5a2.1,2.1,0,0,1-1.12.2h-2.75v-2.1H40.31a2.321,2.321,0,0,1,1.073.171.867.867,0,0,1,.475.837.968.968,0,0,1-.466.9Zm19.618,1.5-1.567-3.775-1.558,3.775ZM24.441,33.45H22.121l-.009-7.417L18.83,33.45H16.842l-3.291-7.424V33.45h-4.6l-.87-2.112H3.364L2.485,33.45H.027L4.08,23.979H7.444l3.85,8.967V23.979h3.695L17.951,30.4l2.721-6.425h3.769V33.45h0Zm9.249,0H26.129V23.979h7.562v1.972h-5.3v1.707h5.171V29.6H28.392v1.891h5.3V33.45Zm10.662-6.92a2.666,2.666,0,0,1-1.6,2.524,2.625,2.625,0,0,1,1.12.8,2.723,2.723,0,0,1,.375,1.738v1.86H41.969l-.009-1.194a2.842,2.842,0,0,0-.357-1.845,2.214,2.214,0,0,0-1.65-.405h-2.43V33.45H35.26V23.979h5.207a5.332,5.332,0,0,1,2.741.454,2.209,2.209,0,0,1,1.146,2.1Zm3.623,6.92h-2.31V23.979h2.31V33.45Zm26.8,0H71.564l-4.291-7.108V33.45h-4.61l-.881-2.112h-4.7l-.855,2.112H53.576A4.758,4.758,0,0,1,50.294,32.4a4.767,4.767,0,0,1-1.209-3.616,5.04,5.04,0,0,1,1.22-3.7,4.6,4.6,0,0,1,3.438-1.1h2.192v2.029H53.789a2.179,2.179,0,0,0-1.742.561,3.126,3.126,0,0,0-.651,2.145,3.286,3.286,0,0,0,.622,2.224,2.183,2.183,0,0,0,1.578.488h1.017L57.8,23.98h3.391l3.833,8.958V23.98h3.447l3.979,6.6v-6.6h2.319v9.47ZM0,35.31H3.868l.872-2.1H6.693l.87,2.1h7.61V33.7l.679,1.615H19.8l.679-1.639V35.31H39.394l-.009-3.453h.366c.256.009.331.033.331.456v3h9.782v-.8a7.75,7.75,0,0,0,3.631.8h4.116l.88-2.1h1.953l.861,2.1h7.93v-2l1.2,2H76.79V22.1H70.5v1.56L69.62,22.1H63.168v1.56l-.809-1.56H53.642a7.829,7.829,0,0,0-3.778.771V22.1H43.849v.771a3.729,3.729,0,0,0-2.557-.771H19.316l-1.475,3.412L16.327,22.1H9.405v1.56l-.76-1.56h-5.9L0,28.382V35.31Zm80.52,6.974H76.394a1.567,1.567,0,0,0-.916.171.737.737,0,0,0-.331.682.715.715,0,0,0,.495.706,2.582,2.582,0,0,0,.873.107l1.227.033a3.579,3.579,0,0,1,2.568.762,1.239,1.239,0,0,1,.21.235Zm0,6.245a3.528,3.528,0,0,1-3.072,1.212H73.076V47.71H77.43a1.287,1.287,0,0,0,.916-.235.832.832,0,0,0,.268-.618.778.778,0,0,0-.276-.626,1.15,1.15,0,0,0-.8-.21c-2.126-.072-4.778.066-4.778-2.932,0-1.374.873-2.82,3.248-2.82H80.52V38.384H76.33a4.721,4.721,0,0,0-2.833.774v-.774H67.3a4.29,4.29,0,0,0-2.7.774v-.774H53.53v.774a5.89,5.89,0,0,0-3.052-.774h-7.3v.774c-.7-.675-2.246-.774-3.19-.774H31.819L29.95,40.407,28.2,38.384H16V51.6H27.97L29.9,49.547,31.71,51.6l7.38.007V48.5h.726a7.689,7.689,0,0,0,3.153-.465V51.6h6.087V48.156h.294c.375,0,.412.015.412.39V51.6H68.254a5.272,5.272,0,0,0,3.081-.846V51.6H77.2a7.859,7.859,0,0,0,3.32-.609V48.529Zm-9.03-3.784a2.637,2.637,0,0,1,.677,2.007c0,2.038-1.273,2.989-3.556,2.989H64.2V47.71h4.391a1.331,1.331,0,0,0,.925-.235.84.84,0,0,0,.267-.618.812.812,0,0,0-.276-.626,1.19,1.19,0,0,0-.806-.21c-2.117-.072-4.769.066-4.769-2.932,0-1.374.863-2.82,3.236-2.82H71.71v2.016H67.557a1.53,1.53,0,0,0-.907.171.794.794,0,0,0,.155,1.387,2.6,2.6,0,0,0,.881.107l1.219.033a3.652,3.652,0,0,1,2.585.762ZM51.063,44.16a2.168,2.168,0,0,1-1.118.2H47.2V42.228h2.787a2.231,2.231,0,0,1,1.08.171.9.9,0,0,1,.469.852,1.022,1.022,0,0,1-.469.909Zm1.367,1.179a2.46,2.46,0,0,1,1.109.8,2.759,2.759,0,0,1,.375,1.729v1.878H51.642V48.556c0-.57.055-1.414-.366-1.854a2.2,2.2,0,0,0-1.661-.42H47.2v3.46H44.921V40.268h5.226a5.605,5.605,0,0,1,2.724.447,2.219,2.219,0,0,1,1.164,2.1,2.653,2.653,0,0,1-1.6,2.52Zm2.859-5.071h7.556v1.959h-5.3V43.95h5.172v1.933H57.544v1.885l5.3.009v1.966H55.29V40.268ZM40.017,44.64H37.092V42.228h2.952c.817,0,1.385.333,1.385,1.161s-.541,1.251-1.411,1.251Zm-5.18,4.24-3.476-3.859,3.476-3.736V48.88Zm-8.976-1.113H20.3V45.882h4.97V43.95H20.3V42.227h5.675l2.476,2.761-2.586,2.779Zm18-4.378c0,2.631-1.963,3.175-3.942,3.175H37.092v3.177h-4.4L29.9,46.605l-2.9,3.136H18.041V40.268h9.1l2.785,3.105,2.879-3.105h7.233c1.8,0,3.815.5,3.815,3.121Zm0,0" transform="translate(0 -11.051)" fill="#fff" fill-rule="evenodd"/>
</svg>
