<svg xmlns="http://www.w3.org/2000/svg" width="83.333" height="50" viewBox="0 0 83.333 50">
  <g id="mastercard-color" transform="translate(-0.5 -13.1)">
    <g id="Group_74" data-name="Group 74" transform="translate(33.833 13.1)">
      <g id="Group_73" data-name="Group 73">
        <path id="Path_58" data-name="Path 58" d="M75.7,38.1a25,25,0,1,1-50,0h0a25,25,0,1,1,50,0Z" transform="translate(-25.7 -13.1)" fill="#ffb600"/>
      </g>
    </g>
    <g id="Group_76" data-name="Group 76" transform="translate(33.833 13.1)">
      <g id="Group_75" data-name="Group 75">
        <path id="Path_59" data-name="Path 59" d="M50.7,13.1a25.065,25.065,0,0,1,25,25h0a25,25,0,1,1-50,0" transform="translate(-25.7 -13.1)" fill="#f7981d"/>
      </g>
    </g>
    <g id="Group_78" data-name="Group 78" transform="translate(58.833 13.1)">
      <g id="Group_77" data-name="Group 77">
        <path id="Path_60" data-name="Path 60" d="M44.6,13.1a25.065,25.065,0,0,1,25,25h0a24.98,24.98,0,0,1-25,25" transform="translate(-44.6 -13.1)" fill="#ff8500"/>
      </g>
    </g>
    <g id="Group_80" data-name="Group 80" transform="translate(0.5 13.1)">
      <g id="Group_79" data-name="Group 79">
        <path id="Path_61" data-name="Path 61" d="M25.235,13.1a25,25,0,0,0,.265,50,25.291,25.291,0,0,0,16.8-6.481h0a23.77,23.77,0,0,0,2.513-2.646H39.653A30.515,30.515,0,0,1,37.8,51.46h8.862a16.943,16.943,0,0,0,1.455-2.646H36.347a15.765,15.765,0,0,1-1.058-2.645H49.045a26.265,26.265,0,0,0,1.323-7.937,34.143,34.143,0,0,0-.529-5.291H34.495a19.339,19.339,0,0,1,.661-2.646H48.913a15.765,15.765,0,0,0-1.058-2.646H36.214A26.232,26.232,0,0,1,37.669,25h8.862a12.579,12.579,0,0,0-1.984-2.646H39.653a22.546,22.546,0,0,1,2.513-2.513,24.409,24.409,0,0,0-16.8-6.481C25.368,13.1,25.368,13.1,25.235,13.1Z" transform="translate(-0.5 -13.1)" fill="#ff5050"/>
      </g>
    </g>
    <g id="Group_82" data-name="Group 82" transform="translate(0.5 13.365)">
      <g id="Group_81" data-name="Group 81" transform="translate(0 0)">
        <path id="Path_62" data-name="Path 62" d="M.5,38.035a24.98,24.98,0,0,0,25,25,25.291,25.291,0,0,0,16.8-6.481h0a23.769,23.769,0,0,0,2.513-2.646H39.653A30.515,30.515,0,0,1,37.8,51.4h8.862a16.944,16.944,0,0,0,1.455-2.646H36.347A15.765,15.765,0,0,1,35.288,46.1H49.045a26.265,26.265,0,0,0,1.323-7.937,34.143,34.143,0,0,0-.529-5.291H34.495a19.339,19.339,0,0,1,.661-2.645H48.913a15.765,15.765,0,0,0-1.058-2.646H36.214a26.232,26.232,0,0,1,1.455-2.646h8.862a12.579,12.579,0,0,0-1.984-2.646H39.653a22.545,22.545,0,0,1,2.513-2.513,24.409,24.409,0,0,0-16.8-6.481h-.132" transform="translate(-0.5 -13.3)" fill="#e52836"/>
      </g>
    </g>
    <g id="Group_84" data-name="Group 84" transform="translate(25.235 13.365)">
      <g id="Group_83" data-name="Group 83" transform="translate(0 0)">
        <path id="Path_63" data-name="Path 63" d="M19.465,63.035a25.291,25.291,0,0,0,16.8-6.481h0a23.768,23.768,0,0,0,2.513-2.646H33.618A30.516,30.516,0,0,1,31.766,51.4h8.862a16.945,16.945,0,0,0,1.455-2.646H30.311A15.766,15.766,0,0,1,29.253,46.1H43.01a26.265,26.265,0,0,0,1.323-7.937,34.143,34.143,0,0,0-.529-5.291H28.459a19.338,19.338,0,0,1,.661-2.645H42.877a15.766,15.766,0,0,0-1.058-2.646H30.179a26.231,26.231,0,0,1,1.455-2.646H40.5a12.58,12.58,0,0,0-1.984-2.646H33.618a22.545,22.545,0,0,1,2.513-2.513,24.409,24.409,0,0,0-16.8-6.481H19.2" transform="translate(-19.2 -13.3)" fill="#cb2026"/>
      </g>
    </g>
    <g id="Group_105" data-name="Group 105" transform="translate(2.881 31.619)">
      <g id="Group_86" data-name="Group 86" transform="translate(27.645 1.19)">
        <g id="Group_85" data-name="Group 85">
          <path id="Path_64" data-name="Path 64" d="M27.036,39.64l.4-2.249a5.729,5.729,0,0,1-.661.132c-.926,0-1.058-.529-.926-.794l.794-4.63h1.455l.4-2.513H27.168L27.433,28H24.787S23.2,36.73,23.2,37.788a1.986,1.986,0,0,0,2.116,2.249A4.06,4.06,0,0,0,27.036,39.64Z" transform="translate(-23.2 -28)" fill="#fff"/>
        </g>
      </g>
      <g id="Group_88" data-name="Group 88" transform="translate(32.407 2.629)">
        <g id="Group_87" data-name="Group 87">
          <path id="Path_65" data-name="Path 65" d="M26.8,35.056c0,3.7,2.513,4.63,4.63,4.63a6.868,6.868,0,0,0,2.778-.4l.529-2.513a7.93,7.93,0,0,1-2.778.661c-2.91,0-2.381-2.116-2.381-2.116H35a17.15,17.15,0,0,0,.4-2.381A3.584,3.584,0,0,0,31.562,29.1C28.784,28.84,26.8,31.75,26.8,35.056Zm4.63-3.836c1.455,0,1.19,1.72,1.19,1.852H29.71C29.71,32.94,29.975,31.22,31.43,31.22Z" transform="translate(-26.8 -29.087)" fill="#fff"/>
        </g>
      </g>
      <g id="Group_90" data-name="Group 90" transform="translate(46.561)">
        <g id="Group_89" data-name="Group 89" transform="translate(0)">
          <path id="Path_66" data-name="Path 66" d="M44.775,39.931l.529-2.91a6.5,6.5,0,0,1-2.249.661c-1.852,0-2.646-1.455-2.646-3.042,0-3.175,1.587-4.894,3.439-4.894a4.417,4.417,0,0,1,2.381.794l.4-2.778a9.3,9.3,0,0,0-3.042-.661c-3.042,0-6.085,2.646-6.085,7.672,0,3.307,1.587,5.556,4.762,5.556A11.871,11.871,0,0,0,44.775,39.931Z" transform="translate(-37.5 -27.1)" fill="#fff"/>
        </g>
      </g>
      <g id="Group_92" data-name="Group 92" transform="translate(11.905 2.381)">
        <g id="Group_91" data-name="Group 91">
          <path id="Path_67" data-name="Path 67" d="M16.326,28.9a9.368,9.368,0,0,0-3.175.529l-.4,2.249a7.819,7.819,0,0,1,2.91-.529c.926,0,1.72.132,1.72.926,0,.529-.132.661-.132.661h-1.19c-2.249,0-4.762.926-4.762,3.968,0,2.381,1.587,2.91,2.513,2.91a3.974,3.974,0,0,0,2.778-1.19l-.132,1.058H18.84L19.9,32.207C19.9,29.032,17.252,28.9,16.326,28.9Zm.529,5.952c0,.4-.265,2.513-1.852,2.513a1.033,1.033,0,0,1-1.058-1.058c0-.661.4-1.587,2.381-1.587A2.086,2.086,0,0,0,16.856,34.852Z" transform="translate(-11.3 -28.9)" fill="#fff"/>
        </g>
      </g>
      <g id="Group_94" data-name="Group 94" transform="translate(19.974 2.249)">
        <g id="Group_93" data-name="Group 93">
          <path id="Path_68" data-name="Path 68" d="M20.442,39.647c.661,0,3.968.132,3.968-3.439,0-3.307-3.175-2.645-3.175-3.968,0-.661.529-.926,1.455-.926.4,0,1.852.132,1.852.132l.4-2.381a10.048,10.048,0,0,0-2.513-.265c-1.984,0-3.968.794-3.968,3.439,0,3.042,3.307,2.778,3.307,3.968,0,.794-.926.926-1.587.926a8.65,8.65,0,0,1-2.381-.4l-.4,2.381C17.532,39.382,18.194,39.647,20.442,39.647Z" transform="translate(-17.4 -28.8)" fill="#fff"/>
        </g>
      </g>
      <g id="Group_96" data-name="Group 96" transform="translate(68.254 0.265)">
        <g id="Group_95" data-name="Group 95" transform="translate(0)">
          <path id="Path_69" data-name="Path 69" d="M61.44,27.3l-.529,3.571A3.668,3.668,0,0,0,58.4,29.549c-2.381,0-4.5,2.91-4.5,6.349,0,2.116,1.058,4.365,3.307,4.365A3.531,3.531,0,0,0,59.72,39.2l-.132.926h2.645l1.984-12.7Zm-1.19,7.011c0,1.455-.661,3.307-2.116,3.307-.926,0-1.455-.794-1.455-2.116,0-2.116.926-3.439,2.116-3.439C59.72,32.062,60.249,32.723,60.249,34.311Z" transform="translate(-53.9 -27.3)" fill="#fff"/>
        </g>
      </g>
      <g id="Group_98" data-name="Group 98" transform="translate(0 0.265)">
        <g id="Group_97" data-name="Group 97">
          <path id="Path_70" data-name="Path 70" d="M4.813,40,6.4,30.475,6.665,40H8.517l3.439-9.524L10.5,40h2.778L15.4,27.3H11.03L8.385,35.1l-.132-7.8H4.416L2.3,40Z" transform="translate(-2.3 -27.3)" fill="#fff"/>
        </g>
      </g>
      <g id="Group_100" data-name="Group 100" transform="translate(40.608 2.646)">
        <g id="Group_99" data-name="Group 99">
          <path id="Path_71" data-name="Path 71" d="M35.91,39.417c.794-4.365.926-7.937,2.778-7.275a10.382,10.382,0,0,1,.926-3.042h-.529c-1.19,0-2.116,1.587-2.116,1.587l.265-1.455H34.72L33,39.55h2.91Z" transform="translate(-33 -29.1)" fill="#fff"/>
        </g>
      </g>
      <g id="Group_102" data-name="Group 102" transform="translate(54.894 2.381)">
        <g id="Group_101" data-name="Group 101">
          <path id="Path_72" data-name="Path 72" d="M48.826,28.9a9.368,9.368,0,0,0-3.175.529l-.4,2.249a7.819,7.819,0,0,1,2.91-.529c.926,0,1.72.132,1.72.926,0,.529-.132.661-.132.661h-1.19c-2.249,0-4.762.926-4.762,3.968,0,2.381,1.587,2.91,2.513,2.91a3.974,3.974,0,0,0,2.778-1.19l-.132,1.058H51.34L52.4,32.207C52.53,29.032,49.752,28.9,48.826,28.9Zm.661,5.952c0,.4-.265,2.513-1.852,2.513a1.033,1.033,0,0,1-1.058-1.058c0-.661.4-1.587,2.381-1.587C49.356,34.852,49.356,34.852,49.488,34.852Z" transform="translate(-43.8 -28.9)" fill="#fff"/>
        </g>
      </g>
      <g id="Group_104" data-name="Group 104" transform="translate(62.831 2.646)">
        <g id="Group_103" data-name="Group 103" transform="translate(0)">
          <path id="Path_73" data-name="Path 73" d="M52.71,39.417c.794-4.365.926-7.937,2.778-7.275a10.383,10.383,0,0,1,.926-3.042h-.529c-1.19,0-2.116,1.587-2.116,1.587l.265-1.455H51.52L49.8,39.55h2.91Z" transform="translate(-49.8 -29.1)" fill="#fff"/>
        </g>
      </g>
    </g>
    <g id="Group_126" data-name="Group 126" transform="translate(2.881 31.619)">
      <g id="Group_107" data-name="Group 107" transform="translate(27.381 1.19)">
        <g id="Group_106" data-name="Group 106">
          <path id="Path_74" data-name="Path 74" d="M23,37.788a1.986,1.986,0,0,0,2.116,2.249,5.035,5.035,0,0,0,1.984-.4l.4-2.249a5.728,5.728,0,0,1-.661.132c-.926,0-1.058-.529-.926-.794L26.7,32.1h1.455l.4-2.513H27.233L27.5,28" transform="translate(-23 -28)" fill="#dce5e5"/>
        </g>
      </g>
      <g id="Group_109" data-name="Group 109" transform="translate(33.73 2.629)">
        <g id="Group_108" data-name="Group 108">
          <path id="Path_75" data-name="Path 75" d="M27.8,35.056c0,3.7,1.19,4.63,3.307,4.63a6.868,6.868,0,0,0,2.778-.4l.529-2.513a7.93,7.93,0,0,1-2.778.661c-2.91,0-2.381-2.116-2.381-2.116h5.423a17.15,17.15,0,0,0,.4-2.381A3.584,3.584,0,0,0,31.239,29.1C28.461,28.84,27.8,31.75,27.8,35.056Zm3.307-3.836c1.455,0,1.72,1.72,1.72,1.852H29.387C29.387,32.94,29.652,31.22,31.107,31.22Z" transform="translate(-27.8 -29.087)" fill="#dce5e5"/>
        </g>
      </g>
      <g id="Group_111" data-name="Group 111" transform="translate(47.884)">
        <g id="Group_110" data-name="Group 110">
          <path id="Path_76" data-name="Path 76" d="M44.452,39.931l.529-2.91a6.5,6.5,0,0,1-2.249.661c-1.852,0-2.646-1.455-2.646-3.042,0-3.175,1.587-4.894,3.439-4.894a4.417,4.417,0,0,1,2.381.794l.4-2.778a9.3,9.3,0,0,0-3.042-.661c-3.042,0-4.762,2.646-4.762,7.672,0,3.307.265,5.556,3.439,5.556A11.871,11.871,0,0,0,44.452,39.931Z" transform="translate(-38.5 -27.1)" fill="#dce5e5"/>
        </g>
      </g>
      <g id="Group_113" data-name="Group 113" transform="translate(11.905 2.646)">
        <g id="Group_112" data-name="Group 112" transform="translate(0)">
          <path id="Path_77" data-name="Path 77" d="M12.755,31.746a7.819,7.819,0,0,1,2.91-.529c.926,0,1.72.132,1.72.926,0,.529-.132.661-.132.661h-1.19c-2.249,0-4.762.926-4.762,3.968,0,2.381,1.587,2.91,2.513,2.91a3.974,3.974,0,0,0,2.778-1.19l-.132,1.058H18.84L19.9,32.275c0-3.042-2.646-3.175-3.7-3.175m1.984,5.688c0,.4-1.587,2.513-3.175,2.513a1.033,1.033,0,0,1-1.058-1.058c0-.661.4-1.587,2.381-1.587A10.806,10.806,0,0,0,18.178,34.788Z" transform="translate(-11.3 -29.1)" fill="#dce5e5"/>
        </g>
      </g>
      <g id="Group_115" data-name="Group 115" transform="translate(20.106 2.249)">
        <g id="Group_114" data-name="Group 114">
          <path id="Path_78" data-name="Path 78" d="M17.5,39.382a11.2,11.2,0,0,0,3.042.265c.661,0,3.968.132,3.968-3.439,0-3.307-3.175-2.645-3.175-3.968,0-.661.529-.926,1.455-.926.4,0,1.852.132,1.852.132l.4-2.381a10.048,10.048,0,0,0-2.513-.265c-1.984,0-2.646.794-2.646,3.439,0,3.042,1.984,2.778,1.984,3.968,0,.794-.926.926-1.587.926" transform="translate(-17.5 -28.8)" fill="#dce5e5"/>
        </g>
      </g>
      <g id="Group_117" data-name="Group 117" transform="translate(69.567 0.397)">
        <g id="Group_116" data-name="Group 116">
          <path id="Path_79" data-name="Path 79" d="M60.59,30.839a3.668,3.668,0,0,0-2.513-1.323c-2.381,0-3.175,2.91-3.175,6.349,0,2.116-.265,4.365,1.984,4.365A3.531,3.531,0,0,0,59.4,39.172l-.132.926h2.645L63.9,27.4m-3.439,6.878c0,1.455-1.19,3.307-2.646,3.307-.926,0-1.455-.794-1.455-2.116,0-2.116.926-3.439,2.116-3.439A2.021,2.021,0,0,1,60.458,34.278Z" transform="translate(-54.893 -27.4)" fill="#dce5e5"/>
        </g>
      </g>
      <g id="Group_119" data-name="Group 119" transform="translate(0 0.265)">
        <g id="Group_118" data-name="Group 118">
          <path id="Path_80" data-name="Path 80" d="M4.813,40,6.4,30.475,6.665,40H8.517l3.439-9.524L10.5,40h2.778L15.4,27.3H12.088l-3.7,7.8-.132-7.8H6.8L2.3,40Z" transform="translate(-2.3 -27.3)" fill="#dce5e5"/>
        </g>
      </g>
      <g id="Group_121" data-name="Group 121" transform="translate(40.741 2.646)">
        <g id="Group_120" data-name="Group 120">
          <path id="Path_81" data-name="Path 81" d="M33.1,39.417h2.778c.794-4.365.926-7.937,2.778-7.275a10.382,10.382,0,0,1,.926-3.042h-.529c-1.19,0-2.116,1.587-2.116,1.587l.265-1.455" transform="translate(-33.1 -29.1)" fill="#dce5e5"/>
        </g>
      </g>
      <g id="Group_123" data-name="Group 123" transform="translate(54.894 2.646)">
        <g id="Group_122" data-name="Group 122">
          <path id="Path_82" data-name="Path 82" d="M45.255,31.746a7.819,7.819,0,0,1,2.91-.529c.926,0,1.72.132,1.72.926,0,.529-.132.661-.132.661h-1.19c-2.249,0-4.762.926-4.762,3.968,0,2.381,1.587,2.91,2.513,2.91a3.974,3.974,0,0,0,2.778-1.19l-.132,1.058H51.34L52.4,32.275c0-3.042-2.646-3.175-3.7-3.175m1.984,5.688c0,.4-1.587,2.513-3.175,2.513a1.033,1.033,0,0,1-1.058-1.058c0-.661.4-1.587,2.381-1.587A11.636,11.636,0,0,0,50.678,34.788Z" transform="translate(-43.8 -29.1)" fill="#dce5e5"/>
        </g>
      </g>
      <g id="Group_125" data-name="Group 125" transform="translate(62.963 2.646)">
        <g id="Group_124" data-name="Group 124">
          <path id="Path_83" data-name="Path 83" d="M49.9,39.417h2.778c.794-4.365.926-7.937,2.778-7.275a10.383,10.383,0,0,1,.926-3.042h-.529c-1.19,0-2.116,1.587-2.116,1.587L54,29.232" transform="translate(-49.9 -29.1)" fill="#dce5e5"/>
        </g>
      </g>
    </g>
  </g>
</svg>
