<svg xmlns="http://www.w3.org/2000/svg" width="35.88" height="35.88" viewBox="0 0 35.88 35.88">
  <path id="Icon_awesome-facebook-square" data-name="Icon awesome-facebook-square" d="M31.143,2.25H3.737A3.737,3.737,0,0,0,0,5.987V33.393A3.737,3.737,0,0,0,3.737,37.13H14.423V25.272h-4.9V19.69h4.9V15.436c0-4.839,2.881-7.512,7.293-7.512a29.715,29.715,0,0,1,4.323.377V13.05H23.6c-2.4,0-3.147,1.489-3.147,3.015V19.69h5.355l-.856,5.582h-4.5V37.13H31.143a3.737,3.737,0,0,0,3.737-3.737V5.987A3.737,3.737,0,0,0,31.143,2.25Z" transform="translate(0.5 -1.75)" stroke="#000" stroke-width="1"/>
</svg>
