<svg xmlns="http://www.w3.org/2000/svg" width="30" height="30" viewBox="0 0 30 30">
  <path id="Icon_awesome-shopping-cart" data-name="Icon awesome-shopping-cart" d="M27.506,17.655,29.968,5.468A1.374,1.374,0,0,0,28.749,3.75H8.292L7.815,1.124A1.3,1.3,0,0,0,6.59,0H1.25A1.335,1.335,0,0,0,0,1.406v.938A1.335,1.335,0,0,0,1.25,3.75H4.89L8.548,23.873a3.37,3.37,0,0,0-1.465,2.846A3.115,3.115,0,0,0,10,30a3.115,3.115,0,0,0,2.917-3.281,3.483,3.483,0,0,0-.876-2.344H22.96a3.483,3.483,0,0,0-.876,2.344A3.115,3.115,0,0,0,25,30a3.115,3.115,0,0,0,2.917-3.281,3.337,3.337,0,0,0-1.645-2.953l.287-1.422a1.374,1.374,0,0,0-1.219-1.718H11.36l-.341-1.875H26.287A1.292,1.292,0,0,0,27.506,17.655Z" fill="#403234"/>
</svg>
